<svg width="512" height="341" viewBox="0 0 512 341" fill="none" xmlns="http://www.w3.org/2000/svg">
<g clip-path="url(#clip0_304_32)">
<path d="M172.466 118.385L128.74 229.642L85.0129 340.898H147.715L172.466 276.69L198.317 211.232L203.575 197.538L172.466 118.385Z" fill="white"/>
<path d="M85.0129 340.898L128.74 229.641M85.0129 340.898L172.466 118.385M85.0129 340.898H147.715L172.466 276.69M172.466 118.385L128.74 229.641M172.466 118.385V184.609M172.466 118.385L203.575 197.538L198.317 211.232M128.74 229.641L172.466 184.609M172.466 184.609L198.317 211.232M172.466 184.609V276.69M198.317 211.232L172.466 276.69" stroke="black" stroke-width="2"/>
<path d="M254.453 62L364.651 341.093H254.453H144.256L254.453 62Z" fill="white"/>
<path d="M364.651 341.093H254.453M364.651 341.093L309.552 201.547M364.651 341.093L254.453 62M144.256 341.093H254.453M144.256 341.093L199.354 201.547M144.256 341.093L254.453 62M254.453 62L309.552 201.547M254.453 62V145.063M254.453 62L199.354 201.547M254.453 341.093V145.063M309.552 201.547L254.453 145.063M254.453 145.063L199.354 201.547" stroke="black" stroke-width="2"/>
<path d="M337.937 118.385L381.96 229.69L425.984 340.995H362.856L337.937 276.76L311.91 211.273L306.616 197.573L337.937 118.385Z" fill="white"/>
<path d="M425.984 340.995L381.96 229.69M425.984 340.995L337.937 118.385M425.984 340.995H362.856L337.937 276.76M337.937 118.385L381.96 229.69M337.937 118.385V184.638M337.937 118.385L306.616 197.573L311.91 211.273M381.96 229.69L337.937 184.638M337.937 184.638L311.91 211.273M337.937 184.638V276.76M311.91 211.273L337.937 276.76" stroke="black" stroke-width="2"/>
</g>
<defs>
<clipPath id="clip0_304_32">
<rect width="512" height="341" fill="white"/>
</clipPath>
</defs>
</svg>
