<svg width="512" height="341" viewBox="0 0 512 341" fill="none" xmlns="http://www.w3.org/2000/svg">
<g clip-path="url(#clip0_304_98)">
<path d="M79.1259 262.737V267.81C79.1259 267.81 152.755 270.577 158.26 270.577C163.764 270.577 240.383 268.732 240.383 268.732V262.98C240.383 262.98 171.103 260.158 158.26 260.158C145.417 260.158 79.1259 262.737 79.1259 262.737Z" fill="white" stroke="black" stroke-width="2"/>
<path d="M66.7395 371.287C63.4586 371.374 62.7823 369.515 62.8542 368.574L64.9013 259.838L74.8016 253.315V242.444H80.0118C76.9037 293.508 72.9115 363.392 72.7833 365.97C72.5675 370.311 70.8407 371.179 66.7395 371.287Z" fill="white" stroke="black" stroke-width="2"/>
<path d="M65.4321 199.686H82.7293L80.0117 234.472H64.9011L65.4321 199.686Z" fill="white" stroke="black" stroke-width="2"/>
<path d="M255.176 200.477H237.908L239.299 234.472H254.893L255.176 200.477Z" fill="white"/>
<path d="M244.815 369.226C249.564 373.132 252.766 370.853 253.773 369.226L254.688 259.113L243.449 249.692V242.444H239.626L244.815 369.226Z" fill="white"/>
<path d="M255.176 200.477H237.908L239.299 234.472H254.893L255.176 200.477Z" stroke="black" stroke-width="2"/>
<path d="M244.815 369.226C249.564 373.132 252.766 370.853 253.773 369.226L254.688 259.113L243.449 249.692V242.444H239.626L244.815 369.226Z" stroke="black" stroke-width="2"/>
<path d="M245.364 231.03V235.182H256.273L246.834 230.148C246.168 229.793 245.364 230.275 245.364 231.03Z" fill="white" stroke="black" stroke-width="2"/>
<path d="M75.1819 229.768V235.182H67.9092L73.4419 229.096C74.0568 228.419 75.1819 228.854 75.1819 229.768Z" fill="white" stroke="black" stroke-width="2"/>
<path d="M258.737 107.573C239.225 136.137 235.955 162.854 236.963 175.045C236.963 175.045 241.624 174.002 245.611 172.502C249.598 171.002 254.528 172.502 254.528 172.502C250.319 154.27 262.083 123.201 270.825 108.875C277.818 97.4152 279.954 80.5238 280.206 69.9608C280.206 69.9608 278.043 69.236 276.242 65.9748C274.44 62.7136 272.278 61.9888 272.278 61.9888C273.789 67.5236 274.279 75.7754 258.737 107.573Z" fill="white" stroke="black" stroke-width="2"/>
<path d="M65.5521 107.03C52.6875 87.5828 49.2554 69.4883 49.1475 60.6978C49.1475 60.6978 45.4662 62.7199 45.2519 63.4383C44.5463 65.8033 42.3691 66.3372 42.3691 68.5113C37.4046 86.2008 57.8894 123.201 63.3936 138.502C67.7969 150.744 68.1698 164.079 67.5942 172.146C72.9994 171.984 83.6483 175.709 83.45 175.045C86.256 165.821 81.6328 131.34 65.5521 107.03Z" fill="white" stroke="black" stroke-width="2"/>
<path d="M146.172 176.486C146.345 180.393 146.873 180.118 145.416 181.657C163.45 184.467 175.312 181.657 175.312 181.657C174.346 180.39 176.031 151.525 176.93 136.766C178.557 110.069 186.266 66.8081 189.395 45.3202L180.026 44.5955C176.357 66.7345 169.042 112.954 166.786 127.541C164.547 142.015 158.306 141.966 155.454 127.541C152.603 113.117 141.107 44.5955 141.107 44.5955H131.017C142.241 76.3932 145.956 171.602 146.172 176.486Z" fill="white" stroke="black" stroke-width="2"/>
<path d="M262.188 175.045C265.791 176.495 242.656 185.633 242.656 185.633H156.963H71.1642L58.6739 178.282C59.2984 175.214 58.9457 175.045 58.674 172.809C61.744 172.058 66.2635 172.4 70.3546 172.685C72.3315 172.822 74.2507 173.389 76.1399 173.987C92.5291 179.179 152.531 182.998 161.605 182.998C171.318 182.998 236.829 177.68 242.656 173.773C247.319 170.647 258.584 173.596 262.188 175.045Z" fill="white" stroke="black" stroke-width="2"/>
<path d="M54.8182 250.455L54.0909 268.636L75.1819 253.364L75.7727 242H68.5H64.1364L54.8182 250.455Z" fill="white" stroke="black" stroke-width="2"/>
<path d="M40.7297 175.835L35.873 403.845C36.0529 404.46 36.5206 405.364 41.1614 405.364C45.8021 405.364 46.4137 404.423 46.5576 403.845L55.1073 242.047C55.1073 242.047 52.1831 242.047 52.4594 238.096C52.6964 234.707 55.4847 234.905 55.4847 234.905L57.3672 199.28C57.3672 199.28 55.2536 195.225 55.3422 192.439C55.4365 189.477 58.1019 185.376 58.1019 185.376L58.5372 177.137C59.3646 173.809 58.8394 167.11 50.1191 166.936C41.3988 166.762 40.226 172.796 40.7297 175.835Z" fill="white" stroke="black" stroke-width="2"/>
<path d="M265.791 266.36L265.071 246.068C263.716 244.847 262.244 243.514 260.746 242.16C259.305 241.72 254.981 242.16 250.656 242.16C247.519 242.16 243.505 241.961 243.499 242.16C243.438 244.195 243.483 246.603 243.628 249.415C245.355 253.148 258.021 261.223 265.791 266.36Z" fill="white" stroke="black" stroke-width="2"/>
<path d="M271.365 167.695C265.494 167.348 262.947 171.458 262.407 173.556L262.928 186.39C262.928 186.39 265.071 189.54 265.071 193.888C265.071 198.296 263.629 200.411 263.629 200.411L264.907 234.472C264.907 234.472 266.512 233.748 266.512 238.821C266.512 243.894 265.028 241.443 265.071 242.444C267.001 287.685 272.036 401.584 272.12 402.434C272.228 403.519 272.768 404.496 277.516 404.604C281.315 404.691 282.409 403.628 282.481 403.085C281.869 331.061 280.538 184.018 280.538 180.284C280.538 176.551 280.107 174.243 279.891 173.556C279.495 171.747 277.236 168.043 271.365 167.695Z" fill="white" stroke="black" stroke-width="2"/>
<path d="M54.3351 241.987C52.2432 238.598 53.4635 235.913 54.3351 234.993C54.3351 234.993 138.993 233.023 160.457 233.023C181.921 233.023 265.598 234.993 265.598 234.993C267.254 238.933 266.288 241.297 265.598 241.987C265.598 241.987 169.609 243.169 162.309 243.169C155.009 243.169 54.3351 241.987 54.3351 241.987Z" fill="white" stroke="black" stroke-width="2"/>
<path d="M35.765 67.5274C30.7573 63.6206 33.6785 58.1582 35.765 55.9153C44.0752 45.3882 66.5899 32.4725 160.094 33.0166C253.341 33.5592 277.408 46.2566 287.014 58.4114C288.525 60.1478 290.899 65.6825 286.366 69.2638C282.74 72.1289 278.447 69.8372 277.085 67.4189C269.746 54.396 238.34 44.8459 160.094 43.9776C50.6586 43.9776 45.4782 63.295 43.2118 66.2252C40.9454 69.1553 37.0601 68.5042 35.765 67.5274Z" fill="white" stroke="black" stroke-width="2"/>
<path d="M58.5372 185.385C54.1123 188.098 55.6592 197.323 57.5659 199.276C124.623 199.963 259.428 201.143 262.191 200.361C265.645 199.384 264.673 196.78 264.673 194.067C264.673 189.075 263.162 187.194 262.191 186.144C196.321 183.431 158.152 186.144 58.5372 185.385Z" fill="white" stroke="black" stroke-width="2"/>
<path d="M278.043 63.4382C278.106 61.9888 279.348 59.0899 283.809 59.0899" stroke="black" stroke-width="2" stroke-linecap="round"/>
<path d="M43.09 61.9888C43.0427 60.0562 42.1117 56.191 38.7657 56.191" stroke="black" stroke-width="2" stroke-linecap="round"/>
</g>
<defs>
<clipPath id="clip0_304_98">
<rect width="512" height="341" fill="white"/>
</clipPath>
</defs>
</svg>
