<svg width="512" height="341" viewBox="0 0 512 341" fill="none" xmlns="http://www.w3.org/2000/svg">
<g clip-path="url(#clip0_307_241)">
<mask id="path-1-inside-1_307_241" fill="white">
<rect x="272.411" y="184.991" width="185.903" height="290.009" rx="1"/>
</mask>
<rect x="272.411" y="184.991" width="185.903" height="290.009" rx="1" fill="white" stroke="black" stroke-width="4" mask="url(#path-1-inside-1_307_241)"/>
<mask id="path-2-inside-2_307_241" fill="white">
<rect x="259.664" y="172.181" width="210.336" height="14.8723" rx="1"/>
</mask>
<rect x="259.664" y="172.181" width="210.336" height="14.8723" rx="1" fill="white" stroke="black" stroke-width="4" mask="url(#path-2-inside-2_307_241)"/>
<path d="M302.098 146.324C302.719 146.147 303.308 146.62 303.308 147.266V156.524C303.308 157.136 302.767 157.614 302.157 157.581C299.407 157.434 292.685 157.722 292.685 164.059C292.685 167.235 292.685 170.107 292.685 171.559C292.685 172.112 292.238 172.558 291.685 172.558H282C281.448 172.558 281 172.112 281 171.559C281 170.107 281 167.235 281 164.059C281 153.113 297.448 147.65 302.098 146.324Z" fill="white" stroke="black" stroke-width="2"/>
<path d="M302.246 148.167C302.246 147.576 302.757 147.113 303.346 147.172L322.592 149.097C323.103 149.148 323.492 149.578 323.492 150.092V153.593C323.492 154.107 323.103 154.537 322.592 154.589L303.346 156.513C302.757 156.572 302.246 156.11 302.246 155.518V148.167Z" fill="white" stroke="black" stroke-width="2"/>
<path d="M314.994 149.23C314.994 148.638 315.504 148.176 316.093 148.235L324.716 149.097C325.227 149.148 325.617 149.578 325.617 150.092V153.593C325.617 154.107 325.227 154.537 324.716 154.589L316.093 155.451C315.504 155.51 314.994 155.047 314.994 154.456V149.23Z" fill="white" stroke="black" stroke-width="2"/>
<rect x="324.554" y="148.125" width="3.18692" height="7.43614" rx="1" fill="white" stroke="black" stroke-width="2"/>
<path d="M281.744 157.992C281.88 157.584 282.262 157.308 282.693 157.308H288.687C289.118 157.308 289.5 157.584 289.636 157.992L294.281 171.927C294.497 172.574 294.015 173.243 293.332 173.243H278.048C277.365 173.243 276.883 172.574 277.099 171.927L281.744 157.992Z" fill="white" stroke="black" stroke-width="2"/>
<rect x="283.034" y="148.81" width="5.31153" height="9.56075" fill="white" stroke="black" stroke-width="2"/>
<path d="M264.975 137.125C264.975 137.125 271.101 143.498 275.333 143.498C279.316 143.498 281.641 143.395 285.69 143.498C289.734 143.602 292.003 143.498 296.048 143.498C300.092 143.498 306.405 137.125 306.405 137.125V141.374C306.405 141.374 301.619 147.748 296.048 147.748C292.577 147.748 288.802 147.748 285.69 147.748C282.578 147.748 278.803 147.748 275.333 147.748C269.762 147.748 264.975 141.374 264.975 141.374V137.125Z" fill="white" stroke="black" stroke-width="2"/>
<circle cx="307.467" cy="139.249" r="4.24922" fill="white" stroke="black" stroke-width="2"/>
<circle cx="263.913" cy="139.249" r="4.24922" fill="white" stroke="black" stroke-width="2"/>
<circle cx="285.69" cy="146.154" r="4.78037" fill="white" stroke="black" stroke-width="2"/>
<path d="M339.797 157.992C339.933 157.584 340.315 157.308 340.746 157.308H346.74C347.171 157.308 347.553 157.584 347.689 157.992L352.334 171.927C352.55 172.574 352.068 173.243 351.385 173.243H336.101C335.418 173.243 334.936 172.574 335.152 171.927L339.797 157.992Z" fill="white" stroke="black" stroke-width="2"/>
<rect x="341.087" y="148.81" width="5.31153" height="9.56075" fill="white" stroke="black" stroke-width="2"/>
<path d="M323.028 137.125C323.028 137.125 329.154 143.498 333.386 143.498C337.369 143.498 339.694 143.395 343.743 143.498C347.787 143.602 350.056 143.498 354.101 143.498C358.145 143.498 364.458 137.125 364.458 137.125V141.374C364.458 141.374 359.672 147.748 354.101 147.748C350.63 147.748 346.855 147.748 343.743 147.748C340.631 147.748 336.856 147.748 333.386 147.748C327.815 147.748 323.028 141.374 323.028 141.374V137.125Z" fill="white" stroke="black" stroke-width="2"/>
<circle cx="365.52" cy="139.249" r="4.24922" fill="white" stroke="black" stroke-width="2"/>
<circle cx="321.966" cy="139.249" r="4.24922" fill="white" stroke="black" stroke-width="2"/>
<circle cx="343.743" cy="146.154" r="4.78037" fill="white" stroke="black" stroke-width="2"/>
<path d="M397.85 157.992C397.986 157.584 398.368 157.308 398.799 157.308H404.793C405.224 157.308 405.606 157.584 405.742 157.992L410.387 171.927C410.603 172.574 410.121 173.243 409.438 173.243H394.154C393.471 173.243 392.989 172.574 393.205 171.927L397.85 157.992Z" fill="white" stroke="black" stroke-width="2"/>
<rect x="399.14" y="148.81" width="5.31153" height="9.56075" fill="white" stroke="black" stroke-width="2"/>
<path d="M381.081 137.125C381.081 137.125 387.207 143.498 391.439 143.498C395.422 143.498 397.747 143.395 401.796 143.498C405.84 143.602 408.109 143.498 412.153 143.498C416.198 143.498 422.511 137.125 422.511 137.125V141.374C422.511 141.374 417.725 147.748 412.153 147.748C408.683 147.748 404.908 147.748 401.796 147.748C398.684 147.748 394.909 147.748 391.439 147.748C385.867 147.748 381.081 141.374 381.081 141.374V137.125Z" fill="white" stroke="black" stroke-width="2"/>
<circle cx="423.573" cy="139.249" r="4.24922" fill="white" stroke="black" stroke-width="2"/>
<circle cx="380.019" cy="139.249" r="4.24922" fill="white" stroke="black" stroke-width="2"/>
<circle cx="401.796" cy="146.154" r="4.78037" fill="white" stroke="black" stroke-width="2"/>
<path d="M453.528 145.623L459.371 150.403C459.371 150.403 457.246 153.059 449.81 160.495C445.41 164.896 445.561 173.243 445.561 173.243H436C436 173.243 436.101 165.474 440.249 160.495C444.398 155.517 453.528 145.623 453.528 145.623Z" fill="white" stroke="black" stroke-width="2"/>
<rect x="459.223" y="135" width="12.4655" height="26.5576" rx="3" transform="rotate(42.4118 459.223 135)" fill="white" stroke="black" stroke-width="2"/>
<path d="M439.101 145.623L444.944 150.403C444.944 150.403 442.819 153.059 435.383 160.495C430.983 164.896 431.134 173.243 431.134 173.243H421.573C421.573 173.243 421.674 165.474 425.822 160.495C429.971 155.517 439.101 145.623 439.101 145.623Z" fill="white" stroke="black" stroke-width="2"/>
<rect x="444.797" y="135" width="12.4655" height="26.5576" rx="3" transform="rotate(42.4118 444.797 135)" fill="white" stroke="black" stroke-width="2"/>
</g>
<defs>
<clipPath id="clip0_307_241">
<rect width="512" height="341" fill="white"/>
</clipPath>
</defs>
</svg>
