<svg width="512" height="341" viewBox="0 0 512 341" fill="none" xmlns="http://www.w3.org/2000/svg">
<path d="M275.337 120.808H261.139C255.299 120.808 250.565 125.542 250.565 131.382V259.539C250.565 265.379 255.299 270.114 261.139 270.114H275.337C281.177 270.114 285.911 265.379 285.911 259.539V131.382C285.911 125.542 281.177 120.808 275.337 120.808Z" fill="white" stroke="black" stroke-width="2"/>
<path d="M275.337 70.7583H261.139C255.299 70.7583 250.565 75.4926 250.565 81.3327V97.5103C250.565 103.35 255.299 108.085 261.139 108.085H275.337C281.177 108.085 285.911 103.35 285.911 97.5103V81.3327C285.911 75.4926 281.177 70.7583 275.337 70.7583Z" fill="white" stroke="black" stroke-width="2"/>
<path d="M348.726 232.787H334.529C328.688 232.787 323.954 237.522 323.954 243.362V259.539C323.954 265.379 328.688 270.114 334.529 270.114H348.726C354.566 270.114 359.301 265.379 359.301 259.539V243.362C359.301 237.522 354.566 232.787 348.726 232.787Z" fill="white" stroke="black" stroke-width="2"/>
<path d="M373.75 120.808H311.526C308.732 120.808 306.053 121.918 304.078 123.893C302.103 125.868 300.993 128.547 300.993 131.34V147.56C300.982 150.341 302.101 153.064 304.063 155.035C306.026 157.005 308.745 158.134 311.526 158.134H318.94C320.27 158.134 321.545 158.663 322.485 159.603C323.425 160.543 323.954 161.818 323.954 163.148V209.49C323.954 212.271 325.083 214.99 327.053 216.952C329.024 218.915 331.747 220.033 334.528 220.022H348.768C351.561 220.022 354.24 218.912 356.215 216.937C358.19 214.962 359.3 212.283 359.3 209.49V163.148C359.3 161.824 359.843 160.52 360.783 159.588C361.723 158.656 363.032 158.123 364.356 158.134H373.75C376.531 158.134 379.25 157.005 381.213 155.035C383.175 153.064 384.294 150.341 384.283 147.56V131.34C384.283 128.547 383.173 125.868 381.198 123.893C379.223 121.918 376.544 120.808 373.75 120.808Z" fill="white" stroke="black" stroke-width="2"/>
<path d="M225.077 70H210.795C208.002 70 205.323 71.1096 203.348 73.0848C201.372 75.06 200.263 77.739 200.263 80.5323V141.957C200.274 143.852 199.505 145.723 198.165 147.063C196.825 148.403 194.954 149.172 193.059 149.161H169.55C167.655 149.172 165.784 148.403 164.444 147.063C163.104 145.723 162.335 143.852 162.346 141.957V131.34C162.346 128.547 161.237 125.868 159.262 123.893C157.286 121.917 154.607 120.808 151.814 120.808H137.574C134.793 120.797 132.07 121.915 130.1 123.878C128.129 125.84 127 128.559 127 131.34V259.581C127 262.375 128.11 265.054 130.085 267.029C132.06 269.004 134.739 270.114 137.532 270.114H151.814C154.607 270.114 157.286 269.004 159.262 267.029C161.237 265.054 162.346 262.375 162.346 259.581V184.002C162.341 183.058 162.522 182.122 162.879 181.248C163.237 180.374 163.764 179.58 164.429 178.91C165.095 178.241 165.886 177.709 166.758 177.347C167.63 176.984 168.564 176.798 169.508 176.798H193.059C194.006 176.792 194.946 176.974 195.822 177.335C196.699 177.695 197.495 178.225 198.165 178.895C198.835 179.565 199.366 180.362 199.726 181.238C200.086 182.115 200.268 183.054 200.263 184.002V259.581C200.263 262.375 201.372 265.054 203.348 267.029C205.323 269.004 208.002 270.114 210.795 270.114H225.077C227.854 270.125 230.573 269.005 232.537 267.041C234.5 265.078 235.62 262.359 235.609 259.581V80.5744C235.62 77.8006 234.508 75.0838 232.554 73.1146C230.601 71.1454 227.893 70.0111 225.119 70H225.077Z" fill="white" stroke="black" stroke-width="2"/>
</svg>
