<svg width="512" height="341" viewBox="0 0 512 341" fill="none" xmlns="http://www.w3.org/2000/svg">
<g clip-path="url(#clip0_304_29)">
<path d="M395.796 307.536L386.27 263.545L383.641 264.859L378.119 267.62C376.915 268.222 374.55 269.206 372.525 270.026C371.505 270.439 370.557 270.815 369.865 271.089C369.743 271.137 369.628 271.182 369.523 271.224L377.087 308.289C377.088 308.292 377.09 308.295 377.091 308.299C377.116 308.349 377.166 308.442 377.257 308.567C377.437 308.813 377.786 309.193 378.43 309.594C379.722 310.4 382.243 311.313 387.019 311.313C391.762 311.313 393.911 310.139 394.879 309.18C395.368 308.697 395.596 308.231 395.705 307.908C395.759 307.745 395.785 307.616 395.796 307.536ZM395.805 307.452L395.805 307.453C395.805 307.451 395.805 307.451 395.805 307.452Z" fill="black" stroke="black" stroke-width="2" stroke-linecap="round"/>
<path d="M251.82 319.625C241.693 311.717 218.247 301.313 205.473 322.964C198.319 338.021 207.048 350.909 214.248 350.632L288.877 350.737C291.067 350.74 293.216 349.978 294.71 348.375C301.216 341.395 307.282 329.101 293.546 318.019C298.122 313.203 298.838 306.308 285.674 304.411C285.45 304.379 285.45 307.025 284.675 309.35C282.892 311.35 276.857 312.363 274.6 312.45C272.633 312.526 266.284 311.38 264.525 309.35C262.898 307.471 265.3 305.475 264.525 304.914C251.666 307.125 249.677 312.704 251.82 319.625Z" fill="white"/>
<path d="M287.357 322.925C289.553 321.556 291.809 319.847 293.546 318.019M258.934 327.131C254.959 324.172 253.171 323.99 251.82 319.625M251.82 319.625C241.693 311.717 218.247 301.313 205.473 322.964C198.319 338.021 207.048 350.909 214.248 350.632L288.877 350.737C291.067 350.74 293.216 349.978 294.71 348.375C301.216 341.395 307.282 329.101 293.546 318.019M251.82 319.625C253.292 322.477 255.929 328.337 254.693 328.959M251.82 319.625C249.677 312.704 251.666 307.125 264.525 304.914C265.3 305.475 262.898 307.471 264.525 309.35C266.284 311.38 272.633 312.526 274.6 312.45C276.857 312.363 282.892 311.35 284.675 309.35C285.45 307.025 285.45 304.379 285.674 304.411C298.838 306.308 298.122 313.203 293.546 318.019" stroke="black" stroke-width="2" stroke-linecap="round"/>
<path d="M409.001 319.625C419.128 311.717 442.574 301.313 455.348 322.964C462.502 338.021 453.773 350.909 446.573 350.632L371.944 350.737C369.754 350.74 367.605 349.978 366.111 348.375C359.605 341.395 353.539 329.101 367.275 318.019C362.699 313.203 361.983 306.308 375.147 304.411C375.371 304.379 375.371 307.025 376.146 309.35C377.929 311.35 383.964 312.363 386.221 312.45C388.188 312.526 394.537 311.38 396.296 309.35C397.923 307.471 395.521 305.475 396.296 304.914C409.155 307.125 411.144 312.704 409.001 319.625Z" fill="white"/>
<path d="M373.464 322.925C371.268 321.556 369.012 319.847 367.275 318.019M401.887 327.131C405.862 324.172 407.65 323.99 409.001 319.625M409.001 319.625C419.128 311.717 442.574 301.313 455.348 322.964C462.502 338.021 453.773 350.909 446.573 350.632L371.944 350.737C369.754 350.74 367.605 349.978 366.111 348.375C359.605 341.395 353.539 329.101 367.275 318.019M409.001 319.625C407.529 322.477 404.892 328.337 406.128 328.959M409.001 319.625C411.144 312.704 409.155 307.125 396.296 304.914C395.521 305.475 397.923 307.471 396.296 309.35C394.537 311.38 388.188 312.526 386.221 312.45C383.964 312.363 377.929 311.35 376.146 309.35C375.371 307.025 375.371 304.379 375.147 304.411C361.983 306.308 362.699 313.203 367.275 318.019" stroke="black" stroke-width="2" stroke-linecap="round"/>
<path d="M289.703 278.367L283.778 309.075C283.744 309.114 283.697 309.163 283.636 309.221C283.422 309.422 283.021 309.735 282.328 310.064C280.939 310.724 278.373 311.449 273.822 311.449C269.305 311.449 267.108 310.46 266.062 309.631C265.54 309.217 265.28 308.825 265.151 308.569C265.109 308.485 265.08 308.414 265.061 308.358L272.225 272.838C272.761 273.093 273.453 273.416 274.236 273.767C276.069 274.588 278.44 275.577 280.511 276.207C282.443 276.795 284.997 277.384 287.047 277.822C288.077 278.042 288.987 278.226 289.641 278.355C289.662 278.359 289.683 278.363 289.703 278.367Z" fill="black" stroke="black" stroke-width="2" stroke-linecap="round"/>
<path d="M448.974 174.839C448.342 178.375 447.925 184.374 445.875 191.55C473.902 186.541 497.016 204.423 498.575 233.4H514.85C515.625 197.75 484.547 174.839 448.974 174.839Z" fill="black" stroke="black" stroke-linecap="round"/>
<path d="M522.771 273.504C528.309 281.603 547.276 254.268 522.771 237.394H492.409C489.835 239.624 488.649 239.413 484.979 244.481C482.296 248.186 482.276 250.814 482.655 255.98C480.312 257.6 478.225 261.254 479.635 269.454C480.354 273.635 486.909 280.722 494.573 283.291C505.047 286.8 509.455 282.278 509.008 278.229C509.903 280.253 513.103 282.278 518.743 280.928C524.382 279.579 523.778 275.979 522.771 273.504Z" fill="white"/>
<path d="M486.853 254.707C486.079 254.707 484.303 254.84 482.655 255.98M505.315 244.481C506.21 246.168 507.598 250.218 505.987 252.918M512.029 244.481C513.26 245.831 515.184 249.408 513.036 252.918M518.743 244.481C520.197 245.381 522.502 248.328 520.085 252.918M482.655 255.98C480.312 257.6 478.225 261.254 479.635 269.454C480.354 273.635 486.909 280.722 494.573 283.291C505.047 286.8 509.455 282.278 509.008 278.229C509.903 280.253 513.103 282.278 518.743 280.928C524.382 279.579 523.778 275.979 522.771 273.504C528.309 281.603 547.276 254.268 522.771 237.394H492.409C489.835 239.624 488.649 239.413 484.979 244.481C482.296 248.186 482.276 250.814 482.655 255.98ZM488.852 261.715C487.561 259.898 485.134 254.303 488.852 247.45" stroke="black" stroke-width="2" stroke-linecap="round" stroke-linejoin="round"/>
<path d="M492.055 235.626C492.055 234.552 492.923 233.682 493.997 233.682C496.98 233.682 502.796 233.682 507.1 233.682C511.472 233.682 517.818 233.682 520.986 233.682C522.066 233.682 522.938 234.557 522.938 235.636V235.636C522.938 236.769 521.977 237.663 520.846 237.596C515.387 237.274 511.287 237.268 507.1 237.275C502.982 237.281 498.949 237.277 494.155 237.581C493.023 237.653 492.055 236.761 492.055 235.626V235.626Z" fill="white" stroke="black" stroke-width="2" stroke-linecap="round" stroke-linejoin="round"/>
<path d="M218.025 169.85L214.925 188.45C188.98 186.091 171.66 204.469 168.425 229.097H151.283C157.083 192.503 181.976 172.833 218.025 169.85Z" fill="black" stroke="black" stroke-linecap="round"/>
<path d="M144.229 268.854C138.691 276.953 119.724 249.618 144.229 232.744C144.229 232.744 153.281 234.154 159.125 234.175C165.191 234.196 174.591 232.744 174.591 232.744C177.166 234.974 178.351 234.763 182.021 239.831C184.704 243.536 184.725 246.163 184.345 251.33C186.688 252.95 188.775 256.604 187.365 264.804C186.646 268.985 180.091 276.072 172.427 278.641C161.953 282.15 157.545 277.628 157.992 273.579C157.097 275.603 153.897 277.628 148.257 276.278C142.618 274.929 143.222 271.329 144.229 268.854Z" fill="white"/>
<path d="M180.147 250.057C180.921 250.057 182.697 250.19 184.345 251.33M161.685 239.831C160.79 241.518 159.402 245.568 161.013 248.268M154.971 239.831C153.74 241.181 151.816 244.758 153.964 248.268M148.257 239.831C146.803 240.731 144.498 243.678 146.915 248.268M184.345 251.33C186.688 252.95 188.775 256.604 187.365 264.804C186.646 268.985 180.091 276.072 172.427 278.641C161.953 282.15 157.545 277.628 157.992 273.579C157.097 275.603 153.897 277.628 148.257 276.278C142.618 274.929 143.222 271.329 144.229 268.854C138.691 276.953 119.724 249.618 144.229 232.744C144.229 232.744 153.281 234.154 159.125 234.175C165.191 234.196 174.591 232.744 174.591 232.744C177.166 234.974 178.351 234.763 182.021 239.831C184.704 243.536 184.725 246.163 184.345 251.33ZM178.149 257.065C179.44 255.248 181.867 249.653 178.149 242.8" stroke="black" stroke-width="2" stroke-linecap="round" stroke-linejoin="round"/>
<path d="M174.945 231.288C174.945 230.069 173.914 229.104 172.697 229.181C169.539 229.38 163.705 229.707 159.503 229.707C155.3 229.707 149.462 229.379 146.305 229.181C145.091 229.104 144.062 230.067 144.062 231.283V231.283C144.062 232.318 144.82 233.199 145.844 233.347C156.237 234.848 162.774 234.894 173.168 233.354C174.19 233.203 174.945 232.321 174.945 231.288V231.288Z" fill="white" stroke="black" stroke-width="2" stroke-linecap="round" stroke-linejoin="round"/>
<path d="M264.061 -6.71112C236.55 8.71916 247.827 32.8581 247.827 70.0997C247.827 116.131 225.409 120.531 215.36 183.376C203.821 255.532 277.976 278.032 303.486 279.584C377.049 284.059 440.622 240.48 448.043 183.376C455.464 126.273 436.963 76.8239 425.625 48.3755C380.789 -64.1253 290.344 -21.4526 264.061 -6.71112Z" fill="white" stroke="black" stroke-width="2"/>
<ellipse rx="10.075" ry="6.2" transform="matrix(-0.820844 -0.571152 0.568339 -0.822794 237.304 233.394)" fill="white" stroke="black" stroke-width="2"/>
<ellipse rx="5.425" ry="3.1" transform="matrix(-0.63602 -0.771672 0.769381 -0.63879 231.685 219.483)" fill="white" stroke="black" stroke-width="2"/>
<ellipse rx="6.975" ry="3.875" transform="matrix(0.968772 -0.247955 0.246257 0.969204 392.361 174.976)" fill="white" stroke="black" stroke-width="2"/>
<circle r="6.2" transform="matrix(0.936854 0.34972 -0.347479 0.937688 422.404 97.2319)" fill="white" stroke="black" stroke-width="2"/>
<ellipse rx="6.975" ry="3.875" transform="matrix(-0.968772 -0.247955 -0.246257 0.969204 302.539 78.8761)" fill="white" stroke="black" stroke-width="2"/>
<ellipse rx="6.2" ry="6.2" transform="matrix(0.936854 0.34972 -0.34748 0.937687 394.504 46.0819)" fill="white" stroke="black" stroke-width="2"/>
<ellipse rx="10.075" ry="6.2" transform="matrix(0.968772 -0.247955 0.246257 0.969204 264.187 24.5609)" fill="white" stroke="black" stroke-width="2"/>
<ellipse rx="5.425" ry="3.1" transform="matrix(0.636021 0.771672 -0.769381 0.63879 275.665 36.5165)" fill="white" stroke="black" stroke-width="2"/>
<ellipse rx="10.075" ry="6.2" transform="matrix(0.968772 -0.247955 0.246257 0.969205 346.337 15.2609)" fill="white" stroke="black" stroke-width="2"/>
<path d="M421.76 55.3583C412.999 64.6687 386.2 80.4964 349.095 69.3239M261.742 55.3583C268.957 61.048 290.499 60.9445 300.393 55.3583M431.809 143.807C421.244 149.755 395.013 158.083 374.605 143.807" stroke="black" stroke-width="2"/>
<path d="M348.269 213.54C362.42 199.425 379.545 203.438 384.687 209.389C410.701 239.489 348.269 269.589 310.81 259.209C280.843 250.906 291.14 231.185 305.607 231.185C313.932 231.185 334.118 227.656 348.269 213.54Z" fill="black" stroke="black"/>
<path d="M358.894 242.1C371.28 226.531 382.632 229.389 387.75 234.175C386.472 238.861 377.591 246.419 366.05 252C356.596 256.572 345.357 259.59 335.05 260.525C333.385 244.748 350.569 242.177 358.894 242.1Z" fill="white"/>
<path d="M355.772 246.483C356.807 244.869 357.85 243.412 358.894 242.1M358.894 242.1C371.28 226.531 382.632 229.389 387.75 234.175C386.472 238.861 377.591 246.419 366.05 252C356.596 256.572 345.357 259.59 335.05 260.525C333.385 244.748 350.569 242.177 358.894 242.1Z" stroke="black" stroke-linecap="round"/>
<ellipse cx="329.625" cy="156.675" rx="27.125" ry="37.975" fill="white" stroke="black" stroke-width="2"/>
<path fill-rule="evenodd" clip-rule="evenodd" d="M345.795 155.816L339.7 159.775L345.389 163.47C343.928 170.755 339.505 176.05 334.275 176.05C327.855 176.05 322.65 168.069 322.65 158.225C322.65 148.381 327.855 140.4 334.275 140.4C340.162 140.4 345.028 147.111 345.795 155.816Z" fill="black"/>
<ellipse cx="267.625" cy="156.675" rx="27.125" ry="37.975" fill="white" stroke="black" stroke-width="2"/>
<path fill-rule="evenodd" clip-rule="evenodd" d="M283.795 155.816L277.7 159.775L283.389 163.47C281.928 170.755 277.505 176.05 272.275 176.05C265.855 176.05 260.65 168.069 260.65 158.225C260.65 148.381 265.855 140.4 272.275 140.4C278.162 140.4 283.028 147.111 283.795 155.816Z" fill="black"/>
</g>
<defs>
<clipPath id="clip0_304_29">
<rect width="512" height="341" fill="white"/>
</clipPath>
</defs>
</svg>
